<svg xmlns="http://www.w3.org/2000/svg" xml:space="preserve" width="800" height="800" viewBox="0 0 496 496"><path d="M496 248c0 21.488-18.553 40.251-23.85 60.07-5.481 20.506 1.043 46.002-9.345 63.956-10.537 18.211-35.979 25.246-50.759 40.025-14.779 14.779-21.813 40.22-40.023 50.756-17.953 10.387-43.448 3.862-63.953 9.343C288.252 477.447 269.489 496 248 496c-21.488 0-40.251-18.553-60.07-23.85-20.506-5.481-46.002 1.043-63.956-9.345-18.211-10.537-25.246-35.979-40.025-50.759-14.779-14.779-40.22-21.813-50.756-40.023-10.387-17.953-3.862-43.448-9.343-63.953C18.553 288.252 0 269.489 0 248c0-21.488 18.553-40.251 23.85-60.07 5.481-20.506-1.043-46.002 9.345-63.956 10.537-18.211 35.979-25.246 50.759-40.025 14.779-14.779 21.813-40.22 40.023-50.756 17.953-10.387 43.448-3.862 63.953-9.343C207.748 18.553 226.511 0 248 0c21.488 0 40.251 18.553 60.07 23.85 20.506 5.481 46.002-1.043 63.956 9.345 18.211 10.537 25.246 35.979 40.025 50.759 14.779 14.779 40.22 21.813 50.756 40.023 10.387 17.953 3.862 43.448 9.343 63.953C477.447 207.748 496 226.511 496 248z" style="fill:#ffd100"/><path d="M83.951 83.951c-14.78 14.778-40.22 21.813-50.757 40.023-10.388 17.954-3.863 43.45-9.344 63.956C18.553 207.749 0 226.511 0 248c0 21.488 18.553 40.251 23.85 60.07 5.481 20.505-1.044 46 9.343 63.953 10.536 18.21 35.978 25.244 50.756 40.023 14.779 14.78 21.814 40.222 40.025 50.759 17.954 10.388 43.45 3.864 63.956 9.345C207.749 477.447 226.512 496 248 496c21.489 0 40.252-18.553 60.07-23.85 20.505-5.481 46 1.044 63.953-9.343 18.21-10.536 25.244-35.978 40.023-50.756l.002-.002L83.951 83.951z" style="fill:#ff9500"/><circle cx="248" cy="248" r="176" style="fill:#fff"/><path d="M248 424c48.601 0 92.601-19.7 124.451-51.549L123.549 123.549C91.7 155.399 72 199.399 72 248c0 97.202 78.798 176 176 176z" style="fill:#ffd100"/><circle cx="248" cy="248" r="152" style="fill:#ff4f19"/><path d="M140.52 140.52C113.014 168.026 96 206.026 96 248c0 83.947 68.053 152 152 152 41.974 0 79.974-17.014 107.48-44.52L140.52 140.52z" style="fill:#e7001e"/><path d="M176 332c-3.07 0-6.141-1.172-8.484-3.516-4.688-4.684-4.688-12.285 0-16.969l144-144c4.688-4.688 12.281-4.688 16.969 0 4.688 4.684 4.688 12.285 0 16.969l-144 144A11.963 11.963 0 0 1 176 332zM200 244c-24.258 0-44-19.738-44-44s19.742-44 44-44 44 19.738 44 44-19.742 44-44 44zm0-64c-11.031 0-20 8.973-20 20s8.969 20 20 20 20-8.973 20-20-8.969-20-20-20zM296 340c-24.258 0-44-19.738-44-44s19.742-44 44-44 44 19.738 44 44-19.742 44-44 44zm0-64c-11.031 0-20 8.973-20 20s8.969 20 20 20 20-8.973 20-20-8.969-20-20-20z" style="fill:#fff"/></svg>